<svg xmlns="http://www.w3.org/2000/svg" width="900" height="185" viewBox="0 0 900 185">
<rect x="25" y="15" width="210" height="36" fill="rgba(255,255,255,0.15)" rx="6" stroke="white" stroke-width="2"/>
<text x="130" y="37" font-family="Arial, Helvetica, sans-serif" font-size="19" fill="white" font-weight="bold" text-anchor="middle">Order Service</text>
<line x1="130" y1="51" x2="130" y2="200" stroke="rgba(255,255,255,0.4)" stroke-width="1" stroke-dasharray="6,3"/>
<rect x="285" y="15" width="210" height="36" fill="rgba(255,255,255,0.15)" rx="6" stroke="white" stroke-width="2"/>
<text x="390" y="37" font-family="Arial, Helvetica, sans-serif" font-size="19" fill="white" font-weight="bold" text-anchor="middle">Broker</text>
<line x1="390" y1="51" x2="390" y2="200" stroke="rgba(255,255,255,0.4)" stroke-width="1" stroke-dasharray="6,3"/>
<rect x="545" y="15" width="210" height="36" fill="rgba(255,255,255,0.15)" rx="6" stroke="white" stroke-width="2"/>
<text x="650" y="37" font-family="Arial, Helvetica, sans-serif" font-size="19" fill="white" font-weight="bold" text-anchor="middle">Shipping Service</text>
<line x1="650" y1="51" x2="650" y2="200" stroke="rgba(255,255,255,0.4)" stroke-width="1" stroke-dasharray="6,3"/>
<line x1="390" y1="80" x2="630" y2="80" stroke="white" stroke-width="2"/>
<polygon points="640,80 628,74 628,86" fill="white"/>
<text x="515" y="71" font-family="Arial, Helvetica, sans-serif" font-size="17" fill="rgba(255,255,255,0.85)" text-anchor="middle">deliver</text>
<line x1="650" y1="110" x2="700" y2="110" stroke="white" stroke-width="2"/>
<text x="760" y="115" font-family="Arial, Helvetica, sans-serif" font-size="18" fill="white" text-anchor="middle">parse  ✅</text>
<line x1="650" y1="148" x2="700" y2="148" stroke="#e74c3c" stroke-width="2"/>
<text x="670" y="153" font-family="Arial, Helvetica, sans-serif" font-size="18" fill="#e74c3c" text-anchor="middle">✗</text>
<text x="775" y="153" font-family="Arial, Helvetica, sans-serif" font-size="18" fill="#e74c3c" text-anchor="middle">temporary failure!</text>
</svg>
