<svg xmlns="http://www.w3.org/2000/svg" width="760" height="110" viewBox="0 0 760 110">
<rect width="760" height="110" fill="#ffffff"/>
<rect x="65" y="29" width="90" height="52" fill="#fff0f0" rx="6" stroke="#e74c3c" stroke-width="2"/>
<text x="110" y="52" font-family="Arial, Helvetica, sans-serif" font-size="17" fill="#1a1a2e" font-weight="normal" font-style="normal" text-anchor="middle">Message</text>
<text x="110" y="68" font-family="Arial, Helvetica, sans-serif" font-size="17" fill="#1a1a2e" font-weight="normal" font-style="normal" text-anchor="middle">fails</text>
<line x1="155" y1="55" x2="164" y2="55" stroke="#e74c3c" stroke-width="2"/>
<polygon points="174,55 162,49 162,61" fill="#e74c3c"/>
<rect x="173" y="29" width="90" height="52" fill="#f0f9fb" rx="6" stroke="#27B8D2" stroke-width="2"/>
<text x="218" y="60" font-family="Arial, Helvetica, sans-serif" font-size="17" fill="#1a1a2e" font-weight="normal" font-style="normal" text-anchor="middle">requeue</text>
<line x1="263" y1="55" x2="272" y2="55" stroke="#e74c3c" stroke-width="2"/>
<polygon points="282,55 270,49 270,61" fill="#e74c3c"/>
<rect x="281" y="29" width="90" height="52" fill="#f0f9fb" rx="6" stroke="#27B8D2" stroke-width="2"/>
<text x="326" y="52" font-family="Arial, Helvetica, sans-serif" font-size="17" fill="#1a1a2e" font-weight="normal" font-style="normal" text-anchor="middle">immediate</text>
<text x="326" y="68" font-family="Arial, Helvetica, sans-serif" font-size="17" fill="#1a1a2e" font-weight="normal" font-style="normal" text-anchor="middle">retry</text>
<line x1="371" y1="55" x2="380" y2="55" stroke="#e74c3c" stroke-width="2"/>
<polygon points="390,55 378,49 378,61" fill="#e74c3c"/>
<rect x="389" y="29" width="90" height="52" fill="#fff0f0" rx="6" stroke="#e74c3c" stroke-width="2"/>
<text x="434" y="52" font-family="Arial, Helvetica, sans-serif" font-size="17" fill="#1a1a2e" font-weight="normal" font-style="normal" text-anchor="middle">fails</text>
<text x="434" y="68" font-family="Arial, Helvetica, sans-serif" font-size="17" fill="#1a1a2e" font-weight="normal" font-style="normal" text-anchor="middle">again</text>
<line x1="479" y1="55" x2="488" y2="55" stroke="#e74c3c" stroke-width="2"/>
<polygon points="498,55 486,49 486,61" fill="#e74c3c"/>
<rect x="497" y="29" width="90" height="52" fill="#f0f9fb" rx="6" stroke="#27B8D2" stroke-width="2"/>
<text x="542" y="60" font-family="Arial, Helvetica, sans-serif" font-size="17" fill="#1a1a2e" font-weight="normal" font-style="normal" text-anchor="middle">requeue</text>
<line x1="587" y1="55" x2="596" y2="55" stroke="#e74c3c" stroke-width="2"/>
<polygon points="606,55 594,49 594,61" fill="#e74c3c"/>
<text x="650" y="63" font-family="Arial, Helvetica, sans-serif" font-size="26" fill="#a0aec0" font-weight="normal" font-style="normal" text-anchor="middle">…</text>
</svg>
